HIERARCHY
ROOT base
{
	OFFSET 0.000000 0.000000 0.000000
	CHANNELS 6 Xposition Yposition Zposition Xrotation Yrotation Zrotation
	JOINT torso
	{
		OFFSET 0.000000 0.000000 0.393139
		CHANNELS 3 Xrotation Yrotation Zrotation
		JOINT head
		{
			OFFSET 0.000000 0.000000 0.297097
			CHANNELS 3 Xrotation Yrotation Zrotation
			End Site
			{
				OFFSET 0.000000 0.000000 0.207219
			}
		}
		JOINT arm.upper.left
		{
			OFFSET 0.202225 0.000000 0.262144
			CHANNELS 6 Xposition Yposition Zposition Xrotation Yrotation Zrotation
			JOINT arm.lower.left
			{
				OFFSET 0.029959 0.000000 -0.169769
				CHANNELS 3 Xrotation Yrotation Zrotation
				End Site
				{
					OFFSET 0.012483 0.000000 -0.174763
				}
			}
		}
		JOINT arm.upper.right
		{
			OFFSET -0.202225 0.000000 0.262144
			CHANNELS 6 Xposition Yposition Zposition Xrotation Yrotation Zrotation
			JOINT arm.lower.right
			{
				OFFSET -0.029959 0.000000 -0.169769
				CHANNELS 3 Xrotation Yrotation Zrotation
				End Site
				{
					OFFSET -0.012483 0.000000 -0.174763
				}
			}
		}
	}
	JOINT leg.upper.left
	{
		OFFSET 0.097368 0.000000 0.328227
		CHANNELS 6 Xposition Yposition Zposition Xrotation Yrotation Zrotation
		JOINT leg.lower.left
		{
			OFFSET -0.007490 0.000000 -0.182253
			CHANNELS 3 Xrotation Yrotation Zrotation
			End Site
			{
				OFFSET -0.022469 0.000000 -0.147300
			}
		}
	}
	JOINT leg.upper.right
	{
		OFFSET -0.097368 0.000000 0.328227
		CHANNELS 6 Xposition Yposition Zposition Xrotation Yrotation Zrotation
		JOINT leg.lower.right
		{
			OFFSET 0.007490 0.000000 -0.182253
			CHANNELS 3 Xrotation Yrotation Zrotation
			End Site
			{
				OFFSET 0.022469 0.000000 -0.147300
			}
		}
	}
}
MOTION
Frames: 24
Frame Time: 0.041667
0.000000 0.000000 0.000000 -0.000000 0.000000 -0.000000 -0.000000 0.000000 -0.000000 -0.000000 0.000000 -0.000000 0.202225 0.000000 0.262144 0.000000 0.000001 0.000001 0.000000 -0.000001 -0.000000 -0.202225 0.000000 0.262144 -0.000002 -0.000004 0.000010 0.000000 -0.000001 0.000001 0.097368 0.000000 0.328227 0.000000 -0.000000 0.000000 0.000000 0.000000 0.000001 -0.097368 0.000000 0.328227 0.000000 -0.000000 -0.000000 -0.000000 0.000001 -0.000001 
0.000000 0.000000 0.000000 -0.000000 0.000000 -0.000000 -0.000000 -0.000000 0.308112 -0.000000 0.000000 -0.000000 0.202225 0.000000 0.262144 0.000000 0.000001 0.000001 0.000000 -0.000002 -0.000000 -0.202225 0.000000 0.262144 -0.884174 -0.563640 0.131092 -0.365135 -0.329064 -0.377175 0.097368 0.000000 0.328227 0.000000 -0.000000 0.000000 0.000000 0.000000 0.000001 -0.097368 0.000000 0.328227 0.000000 -0.000000 -0.000000 -0.000000 0.000001 -0.000001 
0.000000 0.000000 0.000000 -0.000000 0.000000 -0.000000 -0.000000 -0.000000 1.237827 -0.000000 -0.000000 -0.000000 0.202225 0.000000 0.262144 -0.000000 0.000001 0.000001 -0.000000 -0.000001 -0.000000 -0.202225 0.000000 0.262144 -3.568443 -2.290417 0.476444 -1.482751 -1.309472 -1.530772 0.097368 0.000000 0.328227 0.000000 -0.000000 0.000000 0.000000 0.000000 0.000001 -0.097368 0.000000 0.328227 0.000000 -0.000000 -0.000000 -0.000000 0.000001 -0.000001 
0.000000 0.000000 0.000000 -0.000000 0.000000 -0.000000 0.000000 -0.000000 2.764067 0.000000 0.000000 0.000000 0.202225 0.000000 0.262144 -0.000000 0.000001 0.000001 -0.000000 -0.000001 -0.000001 -0.202225 0.000000 0.262144 -8.031515 -5.198432 0.872084 -3.368960 -2.875175 -3.474973 0.097368 0.000000 0.328227 0.000000 -0.000000 0.000000 0.000000 0.000000 0.000001 -0.097368 0.000000 0.328227 0.000000 -0.000000 -0.000000 -0.000000 0.000001 -0.000001 
0.000000 0.000000 0.000000 -0.000000 0.000000 -0.000000 0.000000 -0.000000 4.800674 0.000000 -0.000000 0.000001 0.202225 0.000000 0.262144 0.000000 0.000001 -0.000000 0.000000 -0.000002 -0.000001 -0.202225 0.000000 0.262144 -14.107548 -9.179755 1.044563 -5.984686 -4.870414 -6.166122 0.097368 0.000000 0.328227 0.000000 -0.000000 0.000000 0.000000 0.000000 0.000001 -0.097368 0.000000 0.328227 0.000000 -0.000000 -0.000000 -0.000000 0.000001 -0.000001 
0.000000 0.000000 0.000000 -0.000000 0.000000 -0.000000 0.000000 -0.000000 7.187370 -0.000000 0.000000 -0.000000 0.202225 0.000000 0.262144 0.000000 0.000001 0.000001 0.000000 -0.000001 -0.000000 -0.202225 0.000000 0.262144 -21.428250 -13.902910 0.687484 -9.189989 -7.054086 -9.457146 0.097368 0.000000 0.328227 0.000000 -0.000000 0.000000 0.000000 0.000000 0.000001 -0.097368 0.000000 0.328227 0.000000 -0.000000 -0.000000 -0.000000 0.000001 -0.000001 
0.000000 0.000000 0.000000 -0.000000 0.000000 -0.000000 0.000000 -0.000000 9.699396 -0.000000 -0.000000 -0.000000 0.202225 0.000000 0.262144 -0.000000 0.000001 -0.000000 0.000000 -0.000002 -0.000000 -0.202225 0.000000 0.262144 -29.402967 -18.807127 -0.387891 -12.717839 -9.149157 -13.072348 0.097368 0.000000 0.328227 0.000000 -0.000000 0.000000 0.000000 0.000000 0.000001 -0.097368 0.000000 0.328227 0.000000 -0.000000 -0.000000 -0.000000 0.000001 -0.000001 
0.000000 0.000000 0.000000 -0.000000 0.000000 -0.000000 0.000000 -0.000000 12.085973 0.000000 -0.000000 -0.000000 0.202225 0.000000 0.262144 0.000001 0.000002 -0.000000 0.000000 -0.000001 -0.000002 -0.202225 0.000000 0.262144 -37.267288 -23.262345 -2.106334 -16.202641 -10.925285 -16.637637 0.097368 0.000000 0.328227 0.000000 -0.000000 0.000000 0.000000 0.000000 0.000001 -0.097368 0.000000 0.328227 0.000000 -0.000000 -0.000000 -0.000000 0.000001 -0.000001 
0.000000 0.000000 0.000000 -0.000000 0.000000 -0.000000 0.000000 -0.000000 14.122392 -0.000000 0.000000 -0.000001 0.202225 0.000000 0.262144 0.000000 0.000001 -0.000001 0.000000 -0.000001 -0.000001 -0.202225 0.000000 0.262144 -44.212351 -26.805101 -4.116190 -19.265474 -12.262136 -19.767373 0.097368 0.000000 0.328227 0.000000 -0.000000 0.000000 0.000000 0.000000 0.000001 -0.097368 0.000000 0.328227 0.000000 -0.000000 -0.000000 -0.000000 0.000001 -0.000001 
0.000000 0.000000 0.000000 -0.000000 0.000000 -0.000000 -0.000000 -0.000000 15.648436 -0.000000 0.000000 -0.000002 0.202225 0.000000 0.262144 0.000000 0.000002 -0.000002 -0.000000 -0.000000 -0.000001 -0.202225 0.000000 0.262144 -49.556417 -29.255063 -5.942878 -21.606178 -13.150248 -22.157200 0.097368 0.000000 0.328227 0.000000 -0.000000 0.000000 0.000000 0.000000 0.000001 -0.097368 0.000000 0.328227 0.000000 -0.000000 -0.000000 -0.000000 0.000001 -0.000001 
0.000000 0.000000 0.000000 -0.000000 0.000000 -0.000000 -0.000000 0.000000 16.578005 -0.000000 -0.000000 -0.000000 0.202225 0.000000 0.262144 0.000000 0.000001 -0.000000 -0.000000 -0.000001 0.000000 -0.202225 0.000000 0.262144 -52.866569 -30.647701 -7.184237 -23.048021 -13.642015 -23.628582 0.097368 0.000000 0.328227 0.000000 -0.000000 0.000000 0.000000 0.000000 0.000001 -0.097368 0.000000 0.328227 0.000000 -0.000000 -0.000000 -0.000000 0.000001 -0.000001 
0.000000 0.000000 0.000000 -0.000000 0.000000 -0.000000 -0.000000 0.000000 16.886067 -0.000000 -0.000000 -0.000000 0.202225 0.000000 0.262144 -0.000000 0.000001 -0.000001 0.000000 -0.000001 0.000000 -0.202225 0.000000 0.262144 -53.972097 -31.091332 -7.616227 -23.528205 -13.796653 -24.118491 0.097368 0.000000 0.328227 0.000000 -0.000000 0.000000 0.000000 0.000000 0.000001 -0.097368 0.000000 0.328227 0.000000 -0.000000 -0.000000 -0.000000 0.000001 -0.000001 
0.000000 0.000000 0.000000 -0.000000 0.000000 -0.000000 -0.000000 -0.000000 16.627414 -0.000000 0.000000 -0.000002 0.202225 0.000000 0.262144 0.000000 0.000001 -0.000001 0.000000 -0.000001 -0.000001 -0.202225 0.000000 0.262144 -53.043587 -30.719455 -7.252846 -23.124965 -13.667103 -23.707085 0.097368 0.000000 0.328227 0.000000 -0.000000 0.000000 0.000000 0.000000 0.000001 -0.097368 0.000000 0.328227 0.000000 -0.000000 -0.000000 -0.000000 0.000001 -0.000001 
0.000000 0.000000 0.000000 -0.000000 0.000000 -0.000000 -0.000000 -0.000000 15.846104 0.000000 -0.000000 -0.000000 0.202225 0.000000 0.262144 -0.000000 0.000001 -0.000001 -0.000000 -0.000001 -0.000001 -0.202225 -0.000000 0.262144 -50.256884 -29.557804 -6.198870 -21.911843 -13.257975 -22.469169 0.097368 0.000000 0.328227 0.000000 -0.000000 0.000000 0.000000 0.000000 0.000001 -0.097368 0.000000 0.328227 0.000000 -0.000000 -0.000000 -0.000000 0.000001 -0.000001 
0.000000 0.000000 0.000000 -0.000000 0.000000 -0.000000 0.000000 -0.000000 14.556323 -0.000000 0.000000 -0.000001 0.202225 0.000000 0.262144 0.000000 0.000001 -0.000001 0.000000 -0.000000 0.000002 -0.202225 0.000000 0.262144 -45.719893 -27.521172 -4.608167 -19.927424 -12.524759 -20.443371 0.097368 0.000000 0.328227 0.000000 -0.000000 0.000000 0.000000 0.000000 0.000001 -0.097368 0.000000 0.328227 0.000000 -0.000000 -0.000000 -0.000000 0.000001 -0.000001 
0.000000 0.000000 0.000000 -0.000000 0.000000 -0.000000 0.000000 -0.000000 12.813118 -0.000000 -0.000000 -0.000001 0.202225 0.000000 0.262144 -0.000000 0.000001 -0.000000 0.000000 -0.000001 0.000001 -0.202225 -0.000000 0.262144 -39.721795 -24.559175 -2.766756 -17.287567 -11.422091 -17.746611 0.097368 0.000000 0.328227 0.000000 -0.000000 0.000000 0.000000 0.000000 0.000001 -0.097368 0.000000 0.328227 0.000000 -0.000000 -0.000000 -0.000000 0.000001 -0.000001 
0.000000 0.000000 0.000000 -0.000000 0.000000 -0.000000 0.000000 -0.000000 10.723041 -0.000000 0.000000 -0.000000 0.202225 0.000000 0.262144 0.000001 0.000002 -0.000001 0.000000 -0.000001 -0.000000 -0.202225 0.000000 0.262144 -32.739638 -20.750268 -1.040596 -14.197573 -9.937678 -14.586868 0.097368 0.000000 0.328227 0.000000 -0.000000 0.000000 0.000000 0.000000 0.000001 -0.097368 0.000000 0.328227 0.000000 -0.000000 -0.000000 -0.000000 0.000001 -0.000001 
0.000000 0.000000 0.000000 -0.000000 0.000000 -0.000000 0.000000 -0.000000 8.443334 0.000000 -0.000000 -0.000000 0.202225 0.000000 0.262144 0.000000 0.000001 0.000001 0.000000 -0.000002 -0.000001 -0.202225 0.000000 0.262144 -25.377617 -16.372489 0.242225 -10.934843 -8.129115 -11.245983 0.097368 0.000000 0.328227 0.000000 -0.000000 0.000000 0.000000 0.000000 0.000001 -0.097368 0.000000 0.328227 0.000000 -0.000000 -0.000000 -0.000000 0.000001 -0.000001 
0.000000 0.000000 0.000000 -0.000000 0.000000 -0.000000 0.000000 -0.000000 6.163583 -0.000000 0.000000 -0.000000 0.202225 0.000000 0.262144 0.000000 0.000001 0.000001 0.000000 -0.000000 -0.000001 -0.202225 -0.000000 0.262144 -18.258549 -11.876026 0.917476 -7.796954 -6.139110 -8.027628 0.097368 0.000000 0.328227 0.000000 -0.000000 0.000000 0.000000 0.000000 0.000001 -0.097368 0.000000 0.328227 0.000000 -0.000000 -0.000000 -0.000000 0.000001 -0.000001 
0.000000 0.000000 0.000000 -0.000000 0.000000 -0.000000 0.000000 -0.000000 4.073387 -0.000000 -0.000000 0.000000 0.202225 0.000000 0.262144 0.000000 0.000001 0.000001 -0.000000 -0.000001 -0.000000 -0.202225 0.000000 0.262144 -11.920049 -7.747980 1.031457 -5.037741 -4.170996 -5.192449 0.097368 0.000000 0.328227 0.000000 -0.000000 0.000000 0.000000 0.000000 0.000001 -0.097368 0.000000 0.328227 0.000000 -0.000000 -0.000000 -0.000000 0.000001 -0.000001 
0.000000 0.000000 0.000000 -0.000000 0.000000 -0.000000 0.000000 -0.000000 2.330031 -0.000000 0.000000 0.000000 0.202225 0.000000 0.262144 -0.000000 0.000001 0.000001 0.000000 -0.000003 -0.000000 -0.202225 -0.000000 0.262144 -6.754205 -4.363004 0.781883 -2.826051 -2.435709 -2.915673 0.097368 0.000000 0.328227 0.000000 -0.000000 0.000000 0.000000 0.000000 0.000001 -0.097368 0.000000 0.328227 0.000000 -0.000000 -0.000000 -0.000000 0.000001 -0.000001 
0.000000 0.000000 0.000000 -0.000000 0.000000 -0.000000 0.000000 -0.000000 1.040103 -0.000000 -0.000000 -0.000000 0.202225 0.000000 0.262144 -0.000000 0.000001 0.000002 0.000000 -0.000002 -0.000001 -0.202225 0.000000 0.262144 -2.995126 -1.919895 0.409368 -1.243068 -1.102578 -1.283463 0.097368 0.000000 0.328227 0.000000 -0.000000 0.000000 0.000000 0.000000 0.000001 -0.097368 0.000000 0.328227 0.000000 -0.000000 -0.000000 -0.000000 0.000001 -0.000001 
0.000000 0.000000 0.000000 -0.000000 0.000000 -0.000000 -0.000000 -0.000000 0.258687 -0.000000 -0.000000 0.000000 0.202225 0.000000 0.262144 0.000000 0.000001 0.000002 0.000000 -0.000001 -0.000001 -0.202225 0.000000 0.262144 -0.742069 -0.472878 0.110595 -0.306388 -0.276416 -0.316491 0.097368 0.000000 0.328227 0.000000 -0.000000 0.000000 0.000000 0.000000 0.000001 -0.097368 0.000000 0.328227 0.000000 -0.000000 -0.000000 -0.000000 0.000001 -0.000001 
0.000000 0.000000 0.000000 -0.000000 0.000000 -0.000000 -0.000000 0.000000 -0.000000 -0.000000 0.000000 -0.000000 0.202225 0.000000 0.262144 0.000000 0.000001 0.000001 0.000000 -0.000001 -0.000000 -0.202225 0.000000 0.262144 -0.000002 -0.000004 0.000010 0.000000 -0.000001 0.000001 0.097368 0.000000 0.328227 0.000000 -0.000000 0.000000 0.000000 0.000000 0.000001 -0.097368 0.000000 0.328227 0.000000 -0.000000 -0.000000 -0.000000 0.000001 -0.000001 
